<?xml version="1.0" encoding="UTF-8"?>
<svg version="1.1" xmlns="http://www.w3.org/2000/svg" width="286" height="400">
<path d="M0 0 C17.77254632 13.83179082 24.52825529 31.64114992 27.32485962 53.40737915 C27.90609868 58.19755875 28.46536021 62.98986782 29.00875854 67.78448486 C29.73109611 74.14963153 30.48791314 80.51059855 31.25 86.87109375 C31.39799545 88.10790894 31.54599091 89.34472412 31.69847107 90.61901855 C33.00210943 101.34613074 34.62588622 111.98388052 36.57788086 122.61157227 C38.62552132 133.8261675 38.62552132 133.8261675 38 138 C34.16806234 141.65316572 28.86692008 141.9264417 23.8125 142.625 C22.96695557 142.75052246 22.12141113 142.87604492 21.25024414 143.00537109 C16.82119107 143.65007702 12.39435989 144.20676095 7.9375 144.625 C4.21862456 144.74052135 4.21862456 144.74052135 2 146 C3.0725 146.391875 4.145 146.78375 5.25 147.1875 C6.83481602 147.7877666 8.41795899 148.39245737 10 149 C10.95261719 149.36351562 11.90523437 149.72703125 12.88671875 150.1015625 C26.09838337 155.34562912 35.38560767 162.69158089 43.4375 174.375 C43.9413623 175.09703613 44.44522461 175.81907227 44.96435547 176.56298828 C50.04604182 183.92399425 54.83676357 191.47131886 59.62109375 199.02758789 C63.34034458 204.8899328 67.1130992 210.70472007 70.98828125 216.46484375 C71.60947845 217.3891922 71.60947845 217.3891922 72.2432251 218.33221436 C74.26214406 221.33311745 76.28868499 224.32854816 78.32470703 227.31787109 C79.05157715 228.39504395 79.77844727 229.4722168 80.52734375 230.58203125 C81.49788696 232.00866089 81.49788696 232.00866089 82.48803711 233.46411133 C83.85627745 235.75894621 84.68391355 237.36594622 85 240 C84.67 240.928125 84.34 241.85625 84 242.8125 C82.56299783 247.39294442 83.60057316 250.98484656 84.51953125 255.62109375 C87.02271998 269.1815334 87.60473856 283.94930697 81.1875 296.5625 C74.1385786 304.41701241 67.24782511 307.23617143 57.0625 308.1875 C56.28326172 308.26935547 55.50402344 308.35121094 54.70117188 308.43554688 C52.80179203 308.63364171 50.90101238 308.81823841 49 309 C49.27851301 313.06351381 49.57510671 317.12551257 49.875 321.1875 C49.95363281 322.33798828 50.03226563 323.48847656 50.11328125 324.67382812 C50.19707031 325.78564453 50.28085938 326.89746094 50.3671875 328.04296875 C50.44050293 329.06414795 50.51381836 330.08532715 50.58935547 331.13745117 C51.00593297 334.04135797 51.86898063 336.3082418 53 339 C53.3298962 343.12370255 53.3377499 344.49337515 51 348 C24.89889341 356.6906843 -9.78641173 353.33295378 -37.09008789 353.26074219 C-41.45393852 353.24930379 -45.81754632 353.25616141 -50.18138885 353.26762199 C-75.19926048 353.32337387 -99.68623937 352.43556444 -124.453125 348.5859375 C-129.27089973 347.89510945 -133.96423485 347.8496859 -138.8203125 348.1875 C-141 348 -141 348 -142.7421875 347 C-144.70191106 343.88391782 -144.76195297 340.58667666 -145 337 C-145.05430176 336.23494141 -145.10860352 335.46988281 -145.16455078 334.68164062 C-145.32856283 332.03846254 -145.45062473 329.39589562 -145.5625 326.75 C-145.60858398 325.74291992 -145.65466797 324.73583984 -145.70214844 323.69824219 C-145.96361664 317.07110445 -145.99649484 310.47281509 -145.88671875 303.84375 C-145.8656917 302.24251449 -145.84477743 300.6412775 -145.82397461 299.04003906 C-145.78196406 295.90510651 -145.70577892 292.77339169 -145.61157227 289.63964844 C-145.4288184 280.73779008 -145.94871267 272.68247781 -151 265 C-153.82209966 262.72968324 -153.82209966 262.72968324 -157.0625 262 C-164.64466782 259.70527077 -164.64466782 259.70527077 -167 256 C-167.97666563 248.53277492 -166.61201195 240.97547886 -165.3125 233.625 C-165.13315918 232.58988281 -164.95381836 231.55476562 -164.76904297 230.48828125 C-159.77830239 202.46828787 -153.253217 174.64077102 -129.5 156.5625 C-123.86334747 152.68325207 -117.02789229 148 -110 148 C-110.21221191 147.1951416 -110.21221191 147.1951416 -110.42871094 146.37402344 C-111.84876804 140.58647963 -112.31576635 135.19675194 -112.25 129.25 C-112.24323242 128.34241943 -112.23646484 127.43483887 -112.22949219 126.49975586 C-111.60725776 84.53872603 -101.95277566 36.45203304 -72.8515625 4.65234375 C-53.02164891 -14.47725691 -22.30614517 -14.91495591 0 0 Z " fill="#000000" transform="translate(184,29)"/>
<path d="M0 0 C5.19818471 0.59979054 8.53393341 4.25263395 11.73046875 8.0625 C18.9654128 17.77297678 26 31.60380227 26 44 C13.33029613 44.55353075 13.33029613 44.55353075 8 41 C8.14657084 42.96614267 8.14657084 42.96614267 9 45 C11.03253818 46.15179957 11.03253818 46.15179957 13.5625 46.75 C14.38878906 46.99234375 15.21507812 47.2346875 16.06640625 47.484375 C19.77872089 48.13687238 23.23232206 48.08042002 27 48 C27.4931695 68.68529909 27.09504807 89.5939392 12.125 105.6875 C4.17982954 112.78476689 -4.45593397 115.36547851 -14.88671875 115.2890625 C-21.17037882 114.70563609 -26.13381511 111.89294791 -31 108 C-31.66 108 -32.32 108 -33 108 C-32.67841271 111.00148136 -32.01846979 111.98205792 -29.8125 114.125 C-24.18855477 117.87429682 -18.68629105 118.35810003 -12.125 118.625 C-11.34125 118.66367188 -10.5575 118.70234375 -9.75 118.7421875 C-7.83368633 118.83566622 -5.91687681 118.91888495 -4 119 C-3.02142005 120.92341576 -2.0465857 122.84885798 -1.09375 124.78515625 C-0.14747314 126.70136689 0.82973401 128.60224498 1.8125 130.5 C4.09067081 137.2146087 2.25038175 141.90745536 -0.5625 148.125 C-3.93676645 154.57196802 -8.05489487 158.68496496 -15 161 C-29.54651745 162.11195184 -42.90896649 159.20819195 -54.52734375 149.99609375 C-59.84471134 145.39836989 -65.67079596 140.28582568 -69 134 C-68.67578125 131.73828125 -68.67578125 131.73828125 -68 130 C-67.26394531 129.95101562 -66.52789062 129.90203125 -65.76953125 129.8515625 C-64.30580078 129.73941406 -64.30580078 129.73941406 -62.8125 129.625 C-61.36810547 129.52058594 -61.36810547 129.52058594 -59.89453125 129.4140625 C-56.88102872 128.98298117 -54.67711126 128.45406551 -52 127 C-48.31167656 121.90527039 -46.4062432 116.22906238 -46 110 C-47.65 109.67 -49.3 109.34 -51 109 C-52.78836438 100.74988331 -51.30756458 96.14682438 -46.875 89.125 C-46.07304199 87.79045776 -46.07304199 87.79045776 -45.25488281 86.42895508 C-43.53667951 83.59690781 -41.77680532 80.79561572 -40 78 C-39.38995117 77.03852051 -38.77990234 76.07704102 -38.15136719 75.08642578 C-34.49318325 69.35153086 -30.77618639 63.65784499 -27 58 C-26.34 58.66 -25.68 59.32 -25 60 C-24.608125 59.195625 -24.21625 58.39125 -23.8125 57.5625 C-22 55 -22 55 -19.3125 54.1875 C-18.549375 54.125625 -17.78625 54.06375 -17 54 C-16.7525 54.639375 -16.505 55.27875 -16.25 55.9375 C-15.18437567 58.18741541 -15.18437567 58.18741541 -12.875 58.75 C-12.25625 58.8325 -11.6375 58.915 -11 59 C-12.54294227 54.8309343 -12.54294227 54.8309343 -15.7578125 51.93359375 C-17.47557634 51.21380202 -19.23645681 50.5989392 -21 50 C-21 49.34 -21 48.68 -21 48 C-20.07316406 47.75765625 -19.14632812 47.5153125 -18.19140625 47.265625 C-16.99386719 46.93046875 -15.79632813 46.5953125 -14.5625 46.25 C-13.36753906 45.92515625 -12.17257813 45.6003125 -10.94140625 45.265625 C-7.85270952 44.33791025 -7.85270952 44.33791025 -7.08984375 41.859375 C-7.04537109 40.93898438 -7.04537109 40.93898438 -7 40 C-10.72433382 41.2125738 -14.37802806 42.50859979 -18 44 C-16.58794851 40.35175053 -14.99965327 36.8399156 -13.28515625 33.32421875 C-12.76373047 32.24849609 -12.24230469 31.17277344 -11.70507812 30.06445312 C-10.6153827 27.82416372 -9.52425073 25.58457246 -8.43164062 23.34570312 C-2.90746587 12.10770659 -2.90746587 12.10770659 0 0 Z " fill="#F8D5AF" transform="translate(175,46)"/>
<path d="M0 0 C22.95456293 4.94570796 47.15880517 7.7496174 70.625 8.0625 C70.295 6.4125 69.965 4.7625 69.625 3.0625 C66.325 2.4025 63.025 1.7425 59.625 1.0625 C62.21048628 -1.52298628 63.92038385 -1.91391847 67.54296875 -2.03515625 C69.16138672 -2.01775391 69.16138672 -2.01775391 70.8125 -2 C72.44251953 -1.98646484 72.44251953 -1.98646484 74.10546875 -1.97265625 C74.93691406 -1.96105469 75.76835937 -1.94945312 76.625 -1.9375 C77.42824487 -0.29728625 78.21690592 1.35007057 79 3 C79.44085938 3.91652344 79.88171875 4.83304687 80.3359375 5.77734375 C84.77237332 17.08353322 86.18722209 32.51770842 81.9375 44.0625 C79.41523287 49.12485946 75.74012224 51.84249837 70.625 54.0625 C37.37422028 58.39022918 6.16497907 44.55541686 -21.39941406 27.71850586 C-39.09166044 17.00703994 -55.92249839 13.51151211 -76.375 13.0625 C-77.24080287 11.13017179 -78.09229941 9.19142806 -78.9375 7.25 C-79.41316406 6.17105469 -79.88882813 5.09210938 -80.37890625 3.98046875 C-81.375 1.0625 -81.375 1.0625 -80.375 -1.9375 C-78.1171875 -2.8515625 -78.1171875 -2.8515625 -75.25 -3.5625 C-74.31929688 -3.80226563 -73.38859375 -4.04203125 -72.4296875 -4.2890625 C-48.76509507 -9.31249261 -23.31278974 -5.03650773 0 0 Z " fill="#FAD7B1" transform="translate(177.375,273.9375)"/>
<path d="M0 0 C0.96651417 2.46932585 1.76878396 4.83697271 2.5 7.375 C4.08332977 13.38605218 4.08332977 13.38605218 8 18 C10.00220444 18.45314116 10.00220444 18.45314116 12.2109375 18.40625 C13.0369043 18.4256665 13.86287109 18.44508301 14.71386719 18.46508789 C16.03112793 18.48236938 16.03112793 18.48236938 17.375 18.5 C37.94895428 19.21697113 53.01357325 27.06353346 70 38 C69 41 69 41 66.90209961 42.11914062 C65.99468018 42.46138672 65.08726074 42.80363281 64.15234375 43.15625 C63.15396484 43.53910156 62.15558594 43.92195313 61.12695312 44.31640625 C59.54817383 44.90228516 59.54817383 44.90228516 57.9375 45.5 C56.91205078 45.89058594 55.88660156 46.28117187 54.83007812 46.68359375 C51.89090708 47.80059157 48.94639038 48.90221261 46 50 C44.64706804 50.51023806 43.29419537 51.02063335 41.94140625 51.53125 C40.62785543 52.02150706 39.314035 52.51104215 38 53 C37.17322754 53.3103418 36.34645508 53.62068359 35.49462891 53.94042969 C-3.17882543 68.27109688 -3.17882543 68.27109688 -16.65234375 62.953125 C-19.04622786 61.49633399 -20.9571037 59.91521528 -23 58 C-23.721875 57.38125 -24.44375 56.7625 -25.1875 56.125 C-38.22073076 44.17787181 -48.80638437 25.14448741 -53 8 C-52.67 7.01 -52.34 6.02 -52 5 C-48.47872051 3.45199381 -44.67156453 2.7052844 -40.9375 1.8125 C-39.27243408 1.41115845 -39.27243408 1.41115845 -37.57373047 1.00170898 C-26.17309275 -1.52631446 -11.36188534 -3.78729511 0 0 Z " fill="#FBD8B1" transform="translate(92,275)"/>
<path d="M0 0 C3.41222775 1.2940828 5.43370085 3.43370085 8 6 C7.9375 9 7.9375 9 7 12 C1.66531833 14.7808447 -4.1092441 14.6857289 -10 15 C-11.43472656 15.09861328 -11.43472656 15.09861328 -12.8984375 15.19921875 C-13.77757812 15.23660156 -14.65671875 15.27398437 -15.5625 15.3125 C-16.34753906 15.34988281 -17.13257813 15.38726562 -17.94140625 15.42578125 C-20 15 -20 15 -21.77734375 13.1015625 C-23 11 -23 11 -23 9.0625 C-18.24582544 -0.74298503 -9.60976857 -0.92677447 0 0 Z " fill="#080807" transform="translate(183,131)"/>
<path d="M0 0 C3 1 3 1 5 2 C5 3.32 5 4.64 5 6 C1.5836981 7.03974406 -1.56426012 7.13374875 -5.125 7.125 C-6.70667969 7.12886719 -6.70667969 7.12886719 -8.3203125 7.1328125 C-11 7 -11 7 -13 6 C-10.32702258 -0.16840944 -6.27576967 -0.63490277 0 0 Z " fill="#E8E8E8" transform="translate(180,132)"/>
<path d="M0 0 C2.32094982 1.74603564 4.28511367 3.65267332 6 6 C6 6.66 6 7.32 6 8 C-7.6332574 7.03644647 -7.6332574 7.03644647 -14 6 C-14 5.34 -14 4.68 -14 4 C-5.0379107 -1.09519798 -5.0379107 -1.09519798 0 0 Z " fill="#DEBF9D" transform="translate(214,266)"/>
<path d="M0 0 C4.75 0.75 4.75 0.75 7 3 C7.42834085 6.85506762 7.55897202 9.12800365 5.4375 12.4375 C2.06772759 14.59761052 -0.06243106 14.4835611 -4 14 C-6.9375 12.6875 -6.9375 12.6875 -9 11 C-9 10.01 -9 9.02 -9 8 C-7.9790625 8.2165625 -7.9790625 8.2165625 -6.9375 8.4375 C-3.63726918 9.06945909 -0.32855574 9.54313941 3 10 C3.30495485 5.57335436 3.30495485 5.57335436 1.5 1.625 C1.005 1.08875 0.51 0.5525 0 0 Z " fill="#13100D" transform="translate(179,109)"/>
<path d="M0 0 C3.5 0.25 3.5 0.25 5.5 2.25 C5.625 4.875 5.625 4.875 5.5 7.25 C4.18 7.58 2.86 7.91 1.5 8.25 C1.17 6.93 0.84 5.61 0.5 4.25 C-2.36724686 4.82344937 -3.3614515 5.1114515 -5.5 7.25 C-5.625 4.875 -5.625 4.875 -5.5 2.25 C-3.5 0.25 -3.5 0.25 0 0 Z " fill="#13100D" transform="translate(191.5,96.75)"/>
<path d="M0 0 C2.97 0.33 5.94 0.66 9 1 C5.00889681 2.9955516 3.30013434 3.19546065 -1 3 C-0.67 2.01 -0.34 1.02 0 0 Z " fill="#C2A688" transform="translate(190,94)"/>
<path d="M0 0 C0.99 0.33 1.98 0.66 3 1 C2.38125 1.598125 1.7625 2.19625 1.125 2.8125 C-1.13676954 5.00811144 -1.13676954 5.00811144 -3 8 C-3.36923077 3.44615385 -3.36923077 3.44615385 -1.5 1.1875 C-1.005 0.795625 -0.51 0.40375 0 0 Z " fill="#D2B594" transform="translate(154,100)"/>
<path d="M0 0 C-2 2 -2 2 -4 3 C-6.125 2.5625 -6.125 2.5625 -8 2 C-8 1.34 -8 0.68 -8 0 C-4.94736336 -0.98120464 -3.05263664 -0.98120464 0 0 Z " fill="#C8AB8C" transform="translate(162,94)"/>
</svg>
