<?xml version="1.0" encoding="UTF-8"?>
<svg version="1.1" xmlns="http://www.w3.org/2000/svg" width="290" height="400">
<path d="M0 0 C16.66795025 12.86564883 23.57422104 30.53181872 26.40283203 50.90081787 C27.31208936 57.99077631 28.12456766 65.09198701 28.93359375 72.19396973 C32.04738529 99.76155316 32.04738529 99.76155316 36.66552734 127.10571289 C37.62787977 132.05133608 38.35546479 136.01866689 37 141 C28.04191976 143.50225705 19.21871277 144.92952106 10 146 C10.99 146.37511719 11.98 146.75023437 13 147.13671875 C33.11987597 154.87317176 44.98293409 167.36009973 53.86083984 186.99267578 C59.3010487 199.53021263 63.6638534 212.37871409 67.86669922 225.37548828 C69.01529645 228.9222338 70.1807042 232.46316261 71.34765625 236.00390625 C72.08692992 238.27050989 72.82524777 240.53742555 73.5625 242.8046875 C73.90925781 243.85671356 74.25601563 244.90873962 74.61328125 245.99264526 C74.9278125 246.97202057 75.24234375 247.95139587 75.56640625 248.96044922 C75.84427979 249.81581268 76.12215332 250.67117615 76.40844727 251.55245972 C77.04078747 254.16875754 77.26478128 256.32023208 77 259 C73.1850533 261.94295888 68.83922098 264 64 264 C64.18828369 264.61464111 64.37656738 265.22928223 64.57055664 265.86254883 C67.74210601 277.21655607 68.55647423 288.88542062 69.72680664 300.57788086 C71.09318608 314.07991248 72.73844268 327.34957228 77.10327148 340.2644043 C78.12363136 343.37715475 78.36974626 345.74623294 78 349 C74.67995379 351.21336414 73.92589068 351.20762974 70.11328125 350.9765625 C69.17548828 350.925 68.23769531 350.8734375 67.27148438 350.8203125 C66.29501953 350.75585938 65.31855469 350.69140625 64.3125 350.625 C63.32443359 350.56828125 62.33636719 350.5115625 61.31835938 350.453125 C58.87817115 350.31166481 56.43901409 350.16025726 54 350 C53.67 350.99 53.34 351.98 53 353 C52.25943359 352.83322754 51.51886719 352.66645508 50.75585938 352.49462891 C45.45384832 351.79637914 40.24571866 351.97553447 34.90625 352.0859375 C32.98620111 352.11828677 31.06615204 352.15062659 29.14609814 352.18267727 C27.05607096 352.21842857 24.9661017 352.25669501 22.87612915 352.29550171 C16.04962524 352.42123153 9.22275966 352.52454813 2.39591408 352.62974358 C0.72964054 352.65544777 -0.93663064 352.68130508 -2.60289955 352.70730782 C-23.97512829 353.04076294 -45.34793003 353.32688259 -66.72141075 353.56716537 C-72.5428743 353.63271409 -78.36423903 353.70195753 -84.18554688 353.7802124 C-89.72466828 353.85457688 -95.26381926 353.91938949 -100.80314064 353.97688866 C-102.86871308 353.99998594 -104.93424975 354.02656106 -106.99973106 354.05672646 C-109.83468933 354.09752555 -112.6695052 354.12592155 -115.50463867 354.15112305 C-116.34296486 354.16609518 -117.18129105 354.18106731 -118.04502106 354.19649315 C-120.03106385 354.20749869 -122.0171858 354.1137318 -124 354 C-124.66 353.34 -125.32 352.68 -126 352 C-127.91893687 351.74298833 -127.91893687 351.74298833 -130.12670898 351.85229492 C-131.40329628 351.8767292 -131.40329628 351.8767292 -132.70567322 351.9016571 C-134.08693138 351.94066887 -134.08693138 351.94066887 -135.49609375 351.98046875 C-137.43553362 352.01063016 -139.37498754 352.0398995 -141.31445312 352.06835938 C-144.38069442 352.12419867 -147.4462419 352.187727 -150.51196289 352.26733398 C-153.46508102 352.33974342 -156.41734837 352.38104674 -159.37109375 352.41796875 C-160.74931557 352.46608955 -160.74931557 352.46608955 -162.15538025 352.5151825 C-164.53590958 352.53422493 -166.67276166 352.500229 -169 352 C-171.86125147 348.92385574 -172.43696152 345.85304215 -172.9140625 341.75390625 C-173.03483154 340.75955566 -173.15560059 339.76520508 -173.2800293 338.74072266 C-173.39386963 337.69190918 -173.50770996 336.6430957 -173.625 335.5625 C-173.74979736 334.47501465 -173.87459473 333.3875293 -174.00317383 332.26708984 C-174.35046956 329.17945336 -174.67882433 326.09044741 -175 323 C-175.20302734 321.13021484 -175.20302734 321.13021484 -175.41015625 319.22265625 C-177.80579007 292.46578836 -175.21767194 266.22886468 -170 240 C-170.99 239.67 -171.98 239.34 -173 239 C-173.2979917 233.33070788 -172.35046843 228.9055744 -170.5 223.5625 C-170.23227783 222.7797168 -169.96455566 221.99693359 -169.6887207 221.19042969 C-158.99540487 190.97244171 -138.99866432 166.97753846 -112 150 C-112.309375 149.484375 -112.61875 148.96875 -112.9375 148.4375 C-125.05063437 120.64854469 -109.82533553 71.40704138 -99.79907227 44.92553711 C-94.96697002 32.70353768 -89.25115161 21.28611771 -81 11 C-80.36191406 10.19691406 -79.72382812 9.39382812 -79.06640625 8.56640625 C-59.11942519 -15.2335128 -24.91619743 -17.48626339 0 0 Z " fill="#000000" transform="translate(194,30)"/>
<path d="M0 0 C7.87365078 2.1473593 12.21870927 8.85389031 16.125 15.5625 C24.13666161 29.84290856 27.35803233 44.12906635 27.3125 60.375 C27.32861328 61.51710937 27.34472656 62.65921875 27.36132812 63.8359375 C27.37051961 80.01294299 22.4603903 95.98661001 11.4375 108.0625 C3.83721072 115.32809765 -3.98195516 117.68789972 -14.28027344 117.53051758 C-21.74959889 117.15920903 -26.17010381 114.48453553 -32 110 C-32.66 110 -33.32 110 -34 110 C-33.68793825 112.91257629 -33.03930601 113.96069399 -30.9375 116.0625 C-23.94549148 120.6742503 -17.77011641 121.42288369 -9.54760742 121.3581543 C-7.51171875 121.3984375 -7.51171875 121.3984375 -4 122 C-2.01619138 124.41813359 -1 125.85028904 -1 129 C-0.34 129 0.32 129 1 129 C2.41601562 131.68554688 2.41601562 131.68554688 3.83203125 134.37109375 C4.99019799 136.32267987 4.99019799 136.32267987 8 137 C5.8718361 145.29983923 1.13341568 151.66747151 -5.6796875 156.7109375 C-12.26121961 160.36734423 -18.18592928 161.55713141 -25.6875 161.5 C-26.5638208 161.49427979 -27.4401416 161.48855957 -28.34301758 161.48266602 C-39.80640896 161.16982698 -49.87127365 157.23986128 -58 149 C-60.56535422 145.79831768 -62.83774699 142.48425227 -65 139 C-65.55945313 138.11570313 -66.11890625 137.23140625 -66.6953125 136.3203125 C-68 134 -68 134 -68 132 C-62.72 131.34 -57.44 130.68 -52 130 C-52 127.69 -52 125.38 -52 123 C-51.16015625 120.671875 -51.16015625 120.671875 -50.0625 118.75 C-48.77674249 116.44577508 -47.84373206 114.53119618 -47 112 C-48.65 111.67 -50.3 111.34 -52 111 C-53.76454212 102.79515061 -52.35301053 98.23158194 -47.9375 91.25 C-47.40471436 90.36401123 -46.87192871 89.47802246 -46.32299805 88.56518555 C-44.57964949 85.68965512 -42.79569522 82.84310522 -41 80 C-40.36288086 78.98437988 -39.72576172 77.96875977 -39.06933594 76.92236328 C-35.48925608 71.22629325 -31.87225255 65.55578576 -28.20825195 59.91333008 C-26.96967864 58.0222253 -26.96967864 58.0222253 -26 56 C-25.34 56 -24.68 56 -24 56 C-23.505 57.98 -23.505 57.98 -23 60 C-22.34 60 -21.68 60 -21 60 C-20.34 56.7 -19.68 53.4 -19 50 C-19.66 50 -20.32 50 -21 50 C-19.87548273 47.0280615 -18.77706209 44.66559313 -17 42 C-16.01 42 -15.02 42 -14 42 C-14.07605469 40.9996875 -14.15210938 39.999375 -14.23046875 38.96875 C-13.96595644 34.41375839 -12.49015712 31.38669834 -10.3125 27.5 C-5.64687414 18.72080772 -2.28130724 9.70155919 0 0 Z " fill="#FAD6B0" transform="translate(184,46)"/>
<path d="M0 0 C2.94361105 0.65598102 5.54489785 1.6215748 8.3046875 2.828125 C15.04576034 5.5661443 22.05323629 7.116311 29.125 8.75 C30.47672948 9.06830212 31.82829345 9.38730801 33.1796875 9.70703125 C36.45157164 10.47826108 39.72493846 11.24239848 43 12 C43.02737815 14.47924388 43.04701804 16.95817516 43.0625 19.4375 C43.07087891 20.12521484 43.07925781 20.81292969 43.08789062 21.52148438 C43.10446297 25.08453833 42.9712208 28.53358059 42.50439453 32.06762695 C41.88224199 37.48073158 41.83806995 42.85286637 41.83203125 48.296875 C41.82870285 49.36633362 41.82537445 50.43579224 41.82194519 51.53765869 C41.81690322 53.7967486 41.81453602 56.05584588 41.81469727 58.31494141 C41.81253302 61.69837454 41.79440945 65.0814691 41.77539062 68.46484375 C41.7412556 82.12635559 42.48498618 95.41876938 44 109 C30.8 109 17.6 109 4 109 C3.0409375 101.7915625 3.0409375 101.7915625 2.0625 94.4375 C1.86277588 92.95564209 1.66305176 91.47378418 1.45727539 89.94702148 C-0.65233646 73.83638871 -1.16213073 57.93767479 -1.13037109 41.70239258 C-1.12500447 38.44021979 -1.13034972 35.17818429 -1.13671875 31.91601562 C-1.13976764 21.2323984 -1.03536538 10.64256552 0 0 Z " fill="#FAD7B0" transform="translate(25,272)"/>
<path d="M0 0 C0.01981934 0.82387207 0.03963867 1.64774414 0.06005859 2.49658203 C0.72736963 29.00837004 1.69239048 54.3768823 10.01171875 79.796875 C11 83 11 83 11 85 C5.06 85 -0.88 85 -7 85 C-12.08083724 57.81623123 -16.21807001 29.71798074 -16 2 C-14.27192682 1.66104344 -12.54248026 1.32908475 -10.8125 1 C-9.84957031 0.814375 -8.88664063 0.62875 -7.89453125 0.4375 C-5.20131375 0.03042799 -2.71612318 -0.03202503 0 0 Z " fill="#F7D4AE" transform="translate(255,295)"/>
<path d="M0 0 C-0.27391902 3.2870282 -0.81831983 4.78993231 -3 7.3125 C-7.07246002 9.60325876 -10.42695848 9.97076846 -15 9 C-17.44126601 7.56015127 -18.99573458 6.05565684 -21 4 C-20.67 3.01 -20.34 2.02 -20 1 C-18.68 1 -17.36 1 -16 1 C-15.54625 1.495 -15.0925 1.99 -14.625 2.5 C-13.00823775 4.27330098 -13.00823775 4.27330098 -10.125 4.4375 C-5.92578671 3.84961014 -3.87148917 0 0 0 Z " fill="#0D0B09" transform="translate(195,134)"/>
<path d="M0 0 C4.75 0.75 4.75 0.75 7 3 C7.4375 6.375 7.4375 6.375 7 10 C4.43471452 12.94253335 2.86248842 13.87422044 -1 14.4375 C-4.32304882 13.95288871 -6.27589324 12.92289889 -9 11 C-8.67 9.68 -8.34 8.36 -8 7 C-7.195625 7.4640625 -7.195625 7.4640625 -6.375 7.9375 C-3.58056862 9.18764035 -1.03524289 9.66275079 2 10 C3.24878498 8.96021815 3.24878498 8.96021815 3.25 6.6875 C2.95899829 3.55923162 2.05619793 2.31322267 0 0 Z " fill="#13100D" transform="translate(188,111)"/>
<path d="M0 0 C6.04486575 0.2686607 10.21855286 0.93576993 15 5 C15.33 5.99 15.66 6.98 16 8 C10.63904723 6.41078475 5.29156027 4.81027062 0 3 C0 2.01 0 1.02 0 0 Z " fill="#090706" transform="translate(192,83)"/>
<path d="M0 0 C2.125 0.375 2.125 0.375 4 1 C4 3.31 4 5.62 4 8 C2.02 8.99 2.02 8.99 0 10 C-2.14915785 6.77626323 -2.38286803 5.73296326 -2 2 C-1.34 1.34 -0.68 0.68 0 0 Z " fill="#050403" transform="translate(199,96)"/>
<path d="M0 0 C2.02350324 3.03525486 2.32124018 4.19426202 2.625 7.6875 C2.69976562 8.49574219 2.77453125 9.30398437 2.8515625 10.13671875 C2.90054688 10.75160156 2.94953125 11.36648437 3 12 C2.01 11.67 1.02 11.34 0 11 C-0.6875 8.9375 -0.6875 8.9375 -1 7 C-0.34 7 0.32 7 1 7 C0.67 4.69 0.34 2.38 0 0 Z " fill="#B2987D" transform="translate(207,80)"/>
</svg>
